<mxfile host="Electron" agent="Mozilla/5.0 (Windows NT 10.0; Win64; x64) AppleWebKit/537.36 (KHTML, like Gecko) draw.io/26.2.15 Chrome/134.0.6998.205 Electron/35.2.1 Safari/537.36" version="26.2.15">
  <diagram name="Page-1" id="p0TcaTql8pqPhPUxsHSn">
    <mxGraphModel dx="9128" dy="1849" grid="1" gridSize="10" guides="1" tooltips="1" connect="1" arrows="1" fold="1" page="1" pageScale="1" pageWidth="850" pageHeight="1100" background="#D6D6D6" math="0" shadow="0">
      <root>
        <mxCell id="0" />
        <mxCell id="1" parent="0" />
        <mxCell id="ZqOxgUCwvgQGVWbEYN_5-1" style="edgeStyle=orthogonalEdgeStyle;rounded=0;orthogonalLoop=1;jettySize=auto;html=1;exitX=0;exitY=0.5;exitDx=0;exitDy=0;entryX=1;entryY=0.5;entryDx=0;entryDy=0;endArrow=none;startFill=0;" edge="1" parent="1" source="ZqOxgUCwvgQGVWbEYN_5-2" target="ZqOxgUCwvgQGVWbEYN_5-8">
          <mxGeometry relative="1" as="geometry" />
        </mxCell>
        <mxCell id="ZqOxgUCwvgQGVWbEYN_5-2" value="Zeca" style="rounded=1;whiteSpace=wrap;html=1;" vertex="1" parent="1">
          <mxGeometry x="-3255" y="400" width="120" height="60" as="geometry" />
        </mxCell>
        <mxCell id="ZqOxgUCwvgQGVWbEYN_5-3" style="edgeStyle=orthogonalEdgeStyle;rounded=0;orthogonalLoop=1;jettySize=auto;html=1;exitX=1;exitY=0.5;exitDx=0;exitDy=0;entryX=0;entryY=0.5;entryDx=0;entryDy=0;endArrow=none;startFill=0;" edge="1" parent="1" source="ZqOxgUCwvgQGVWbEYN_5-4" target="ZqOxgUCwvgQGVWbEYN_5-8">
          <mxGeometry relative="1" as="geometry" />
        </mxCell>
        <mxCell id="ZqOxgUCwvgQGVWbEYN_5-4" value="Tininha" style="rounded=1;whiteSpace=wrap;html=1;fillColor=#dae8fc;strokeColor=#6c8ebf;" vertex="1" parent="1">
          <mxGeometry x="-3405" y="400" width="120" height="60" as="geometry" />
        </mxCell>
        <mxCell id="ZqOxgUCwvgQGVWbEYN_5-5" style="edgeStyle=orthogonalEdgeStyle;rounded=0;orthogonalLoop=1;jettySize=auto;html=1;exitX=0.5;exitY=1;exitDx=0;exitDy=0;entryX=0.5;entryY=0;entryDx=0;entryDy=0;" edge="1" parent="1" source="ZqOxgUCwvgQGVWbEYN_5-8" target="ZqOxgUCwvgQGVWbEYN_5-12">
          <mxGeometry relative="1" as="geometry" />
        </mxCell>
        <mxCell id="ZqOxgUCwvgQGVWbEYN_5-6" style="edgeStyle=orthogonalEdgeStyle;rounded=0;orthogonalLoop=1;jettySize=auto;html=1;exitX=0.5;exitY=1;exitDx=0;exitDy=0;entryX=0.5;entryY=0;entryDx=0;entryDy=0;" edge="1" parent="1" source="ZqOxgUCwvgQGVWbEYN_5-8" target="ZqOxgUCwvgQGVWbEYN_5-101">
          <mxGeometry relative="1" as="geometry">
            <mxPoint x="-3580" y="510" as="targetPoint" />
          </mxGeometry>
        </mxCell>
        <mxCell id="ZqOxgUCwvgQGVWbEYN_5-7" style="edgeStyle=orthogonalEdgeStyle;rounded=0;orthogonalLoop=1;jettySize=auto;html=1;exitX=0.5;exitY=1;exitDx=0;exitDy=0;entryX=0.5;entryY=0;entryDx=0;entryDy=0;" edge="1" parent="1" source="ZqOxgUCwvgQGVWbEYN_5-8" target="ZqOxgUCwvgQGVWbEYN_5-14">
          <mxGeometry relative="1" as="geometry" />
        </mxCell>
        <mxCell id="ZqOxgUCwvgQGVWbEYN_5-8" value="" style="ellipse;whiteSpace=wrap;html=1;aspect=fixed;" vertex="1" parent="1">
          <mxGeometry x="-3275" y="425" width="10" height="10" as="geometry" />
        </mxCell>
        <mxCell id="ZqOxgUCwvgQGVWbEYN_5-11" style="edgeStyle=orthogonalEdgeStyle;rounded=0;orthogonalLoop=1;jettySize=auto;html=1;exitX=0;exitY=0.5;exitDx=0;exitDy=0;entryX=1;entryY=0.5;entryDx=0;entryDy=0;endArrow=none;startFill=0;" edge="1" parent="1" source="ZqOxgUCwvgQGVWbEYN_5-12" target="ZqOxgUCwvgQGVWbEYN_5-23">
          <mxGeometry relative="1" as="geometry" />
        </mxCell>
        <mxCell id="ZqOxgUCwvgQGVWbEYN_5-12" value="Maria José" style="rounded=1;whiteSpace=wrap;html=1;fillColor=#dae8fc;strokeColor=#6c8ebf;" vertex="1" parent="1">
          <mxGeometry x="-3330" y="510" width="120" height="60" as="geometry" />
        </mxCell>
        <mxCell id="ZqOxgUCwvgQGVWbEYN_5-13" style="edgeStyle=orthogonalEdgeStyle;rounded=0;orthogonalLoop=1;jettySize=auto;html=1;exitX=0;exitY=0.5;exitDx=0;exitDy=0;entryX=1;entryY=0.5;entryDx=0;entryDy=0;endArrow=none;startFill=0;" edge="1" parent="1" source="ZqOxgUCwvgQGVWbEYN_5-14" target="ZqOxgUCwvgQGVWbEYN_5-28">
          <mxGeometry relative="1" as="geometry" />
        </mxCell>
        <mxCell id="ZqOxgUCwvgQGVWbEYN_5-14" value="Beto" style="rounded=1;whiteSpace=wrap;html=1;fillColor=#dae8fc;strokeColor=#6c8ebf;" vertex="1" parent="1">
          <mxGeometry x="-3030" y="510" width="120" height="60" as="geometry" />
        </mxCell>
        <mxCell id="ZqOxgUCwvgQGVWbEYN_5-20" style="edgeStyle=orthogonalEdgeStyle;rounded=0;orthogonalLoop=1;jettySize=auto;html=1;exitX=1;exitY=0.5;exitDx=0;exitDy=0;entryX=0;entryY=0.5;entryDx=0;entryDy=0;endArrow=none;startFill=0;" edge="1" parent="1" source="ZqOxgUCwvgQGVWbEYN_5-21" target="ZqOxgUCwvgQGVWbEYN_5-23">
          <mxGeometry relative="1" as="geometry" />
        </mxCell>
        <mxCell id="ZqOxgUCwvgQGVWbEYN_5-21" value="Luis" style="rounded=1;whiteSpace=wrap;html=1;" vertex="1" parent="1">
          <mxGeometry x="-3480" y="510" width="120" height="60" as="geometry" />
        </mxCell>
        <mxCell id="ZqOxgUCwvgQGVWbEYN_5-22" style="edgeStyle=orthogonalEdgeStyle;rounded=0;orthogonalLoop=1;jettySize=auto;html=1;exitX=0.5;exitY=1;exitDx=0;exitDy=0;entryX=0.5;entryY=0;entryDx=0;entryDy=0;" edge="1" parent="1" source="ZqOxgUCwvgQGVWbEYN_5-23" target="ZqOxgUCwvgQGVWbEYN_5-31">
          <mxGeometry relative="1" as="geometry" />
        </mxCell>
        <mxCell id="ZqOxgUCwvgQGVWbEYN_5-23" value="" style="ellipse;whiteSpace=wrap;html=1;aspect=fixed;" vertex="1" parent="1">
          <mxGeometry x="-3350" y="535" width="10" height="10" as="geometry" />
        </mxCell>
        <mxCell id="ZqOxgUCwvgQGVWbEYN_5-24" style="edgeStyle=orthogonalEdgeStyle;rounded=0;orthogonalLoop=1;jettySize=auto;html=1;exitX=1;exitY=0.5;exitDx=0;exitDy=0;entryX=0;entryY=0.5;entryDx=0;entryDy=0;endArrow=none;startFill=0;" edge="1" parent="1" source="ZqOxgUCwvgQGVWbEYN_5-25" target="ZqOxgUCwvgQGVWbEYN_5-28">
          <mxGeometry relative="1" as="geometry" />
        </mxCell>
        <mxCell id="ZqOxgUCwvgQGVWbEYN_5-25" value="Isabel&lt;br&gt;&quot;Bebéu&quot;" style="rounded=1;whiteSpace=wrap;html=1;" vertex="1" parent="1">
          <mxGeometry x="-3180" y="510" width="120" height="60" as="geometry" />
        </mxCell>
        <mxCell id="ZqOxgUCwvgQGVWbEYN_5-26" style="edgeStyle=orthogonalEdgeStyle;rounded=0;orthogonalLoop=1;jettySize=auto;html=1;exitX=0.5;exitY=1;exitDx=0;exitDy=0;entryX=0.5;entryY=0;entryDx=0;entryDy=0;" edge="1" parent="1" source="ZqOxgUCwvgQGVWbEYN_5-28" target="ZqOxgUCwvgQGVWbEYN_5-32">
          <mxGeometry relative="1" as="geometry" />
        </mxCell>
        <mxCell id="ZqOxgUCwvgQGVWbEYN_5-27" style="edgeStyle=orthogonalEdgeStyle;rounded=0;orthogonalLoop=1;jettySize=auto;html=1;exitX=0.5;exitY=1;exitDx=0;exitDy=0;entryX=0.5;entryY=0;entryDx=0;entryDy=0;" edge="1" parent="1" source="ZqOxgUCwvgQGVWbEYN_5-28" target="ZqOxgUCwvgQGVWbEYN_5-33">
          <mxGeometry relative="1" as="geometry" />
        </mxCell>
        <mxCell id="ZqOxgUCwvgQGVWbEYN_5-28" value="" style="ellipse;whiteSpace=wrap;html=1;aspect=fixed;" vertex="1" parent="1">
          <mxGeometry x="-3050" y="535" width="10" height="10" as="geometry" />
        </mxCell>
        <mxCell id="ZqOxgUCwvgQGVWbEYN_5-31" value="Luis" style="rounded=1;whiteSpace=wrap;html=1;fillColor=#dae8fc;strokeColor=#6c8ebf;" vertex="1" parent="1">
          <mxGeometry x="-3405" y="610" width="120" height="60" as="geometry" />
        </mxCell>
        <mxCell id="ZqOxgUCwvgQGVWbEYN_5-32" value="José" style="rounded=1;whiteSpace=wrap;html=1;fillColor=#dae8fc;strokeColor=#6c8ebf;" vertex="1" parent="1">
          <mxGeometry x="-3170" y="610" width="120" height="60" as="geometry" />
        </mxCell>
        <mxCell id="ZqOxgUCwvgQGVWbEYN_5-33" value="Luisa" style="rounded=1;whiteSpace=wrap;html=1;fillColor=#dae8fc;strokeColor=#6c8ebf;" vertex="1" parent="1">
          <mxGeometry x="-3040" y="610" width="120" height="60" as="geometry" />
        </mxCell>
        <mxCell id="ZqOxgUCwvgQGVWbEYN_5-55" style="edgeStyle=orthogonalEdgeStyle;rounded=0;orthogonalLoop=1;jettySize=auto;html=1;exitX=0;exitY=0.5;exitDx=0;exitDy=0;entryX=1;entryY=0.5;entryDx=0;entryDy=0;endArrow=none;startFill=0;" edge="1" parent="1" source="ZqOxgUCwvgQGVWbEYN_5-34" target="ZqOxgUCwvgQGVWbEYN_5-47">
          <mxGeometry relative="1" as="geometry" />
        </mxCell>
        <mxCell id="ZqOxgUCwvgQGVWbEYN_5-34" value="Diva" style="rounded=1;whiteSpace=wrap;html=1;fillColor=#dae8fc;strokeColor=#6c8ebf;" vertex="1" parent="1">
          <mxGeometry x="-4108" y="400" width="120" height="60" as="geometry" />
        </mxCell>
        <mxCell id="ZqOxgUCwvgQGVWbEYN_5-38" style="edgeStyle=orthogonalEdgeStyle;rounded=0;orthogonalLoop=1;jettySize=auto;html=1;exitX=1;exitY=0.5;exitDx=0;exitDy=0;entryX=0;entryY=0.5;entryDx=0;entryDy=0;endArrow=none;startFill=0;" edge="1" parent="1" source="ZqOxgUCwvgQGVWbEYN_5-35" target="ZqOxgUCwvgQGVWbEYN_5-37">
          <mxGeometry relative="1" as="geometry" />
        </mxCell>
        <mxCell id="ZqOxgUCwvgQGVWbEYN_5-35" value="Albertino" style="rounded=1;whiteSpace=wrap;html=1;fillColor=#dae8fc;strokeColor=#6c8ebf;" vertex="1" parent="1">
          <mxGeometry x="-3780" y="290" width="120" height="60" as="geometry" />
        </mxCell>
        <mxCell id="ZqOxgUCwvgQGVWbEYN_5-39" style="edgeStyle=orthogonalEdgeStyle;rounded=0;orthogonalLoop=1;jettySize=auto;html=1;exitX=0;exitY=0.5;exitDx=0;exitDy=0;entryX=1;entryY=0.5;entryDx=0;entryDy=0;endArrow=none;startFill=0;" edge="1" parent="1" source="ZqOxgUCwvgQGVWbEYN_5-36" target="ZqOxgUCwvgQGVWbEYN_5-37">
          <mxGeometry relative="1" as="geometry" />
        </mxCell>
        <mxCell id="ZqOxgUCwvgQGVWbEYN_5-36" value="Conceição" style="rounded=1;whiteSpace=wrap;html=1;fillColor=#dae8fc;strokeColor=#6c8ebf;" vertex="1" parent="1">
          <mxGeometry x="-3630" y="290" width="120" height="60" as="geometry" />
        </mxCell>
        <mxCell id="ZqOxgUCwvgQGVWbEYN_5-40" style="edgeStyle=orthogonalEdgeStyle;rounded=0;orthogonalLoop=1;jettySize=auto;html=1;exitX=0.5;exitY=1;exitDx=0;exitDy=0;entryX=0.5;entryY=0;entryDx=0;entryDy=0;" edge="1" parent="1" source="ZqOxgUCwvgQGVWbEYN_5-37" target="ZqOxgUCwvgQGVWbEYN_5-34">
          <mxGeometry relative="1" as="geometry" />
        </mxCell>
        <mxCell id="ZqOxgUCwvgQGVWbEYN_5-41" style="edgeStyle=orthogonalEdgeStyle;rounded=0;orthogonalLoop=1;jettySize=auto;html=1;exitX=0.5;exitY=1;exitDx=0;exitDy=0;entryX=0.5;entryY=0;entryDx=0;entryDy=0;" edge="1" parent="1" source="ZqOxgUCwvgQGVWbEYN_5-37" target="ZqOxgUCwvgQGVWbEYN_5-4">
          <mxGeometry relative="1" as="geometry" />
        </mxCell>
        <mxCell id="ZqOxgUCwvgQGVWbEYN_5-37" value="" style="ellipse;whiteSpace=wrap;html=1;aspect=fixed;" vertex="1" parent="1">
          <mxGeometry x="-3650" y="315" width="10" height="10" as="geometry" />
        </mxCell>
        <mxCell id="ZqOxgUCwvgQGVWbEYN_5-54" style="edgeStyle=orthogonalEdgeStyle;rounded=0;orthogonalLoop=1;jettySize=auto;html=1;exitX=0;exitY=0.5;exitDx=0;exitDy=0;entryX=1;entryY=0.5;entryDx=0;entryDy=0;endArrow=none;startFill=0;" edge="1" parent="1" source="ZqOxgUCwvgQGVWbEYN_5-42" target="ZqOxgUCwvgQGVWbEYN_5-53">
          <mxGeometry relative="1" as="geometry" />
        </mxCell>
        <mxCell id="ZqOxgUCwvgQGVWbEYN_5-42" value="Lizete&lt;br&gt;&quot;Liz&quot;" style="rounded=1;whiteSpace=wrap;html=1;fillColor=#dae8fc;strokeColor=#6c8ebf;" vertex="1" parent="1">
          <mxGeometry x="-4048" y="510" width="120" height="60" as="geometry" />
        </mxCell>
        <mxCell id="ZqOxgUCwvgQGVWbEYN_5-58" style="edgeStyle=orthogonalEdgeStyle;rounded=0;orthogonalLoop=1;jettySize=auto;html=1;exitX=0;exitY=0.5;exitDx=0;exitDy=0;entryX=1;entryY=0.5;entryDx=0;entryDy=0;endArrow=none;startFill=0;" edge="1" parent="1" source="ZqOxgUCwvgQGVWbEYN_5-43" target="ZqOxgUCwvgQGVWbEYN_5-50">
          <mxGeometry relative="1" as="geometry" />
        </mxCell>
        <mxCell id="ZqOxgUCwvgQGVWbEYN_5-43" value="Madalena" style="rounded=1;whiteSpace=wrap;html=1;fillColor=#dae8fc;strokeColor=#6c8ebf;" vertex="1" parent="1">
          <mxGeometry x="-4398" y="510" width="120" height="60" as="geometry" />
        </mxCell>
        <mxCell id="ZqOxgUCwvgQGVWbEYN_5-45" style="edgeStyle=orthogonalEdgeStyle;rounded=0;orthogonalLoop=1;jettySize=auto;html=1;exitX=1;exitY=0.5;exitDx=0;exitDy=0;entryX=0;entryY=0.5;entryDx=0;entryDy=0;endArrow=none;startFill=0;" edge="1" parent="1" source="ZqOxgUCwvgQGVWbEYN_5-46" target="ZqOxgUCwvgQGVWbEYN_5-47">
          <mxGeometry relative="1" as="geometry" />
        </mxCell>
        <mxCell id="ZqOxgUCwvgQGVWbEYN_5-46" value="Alberto" style="rounded=1;whiteSpace=wrap;html=1;fillColor=#dae8fc;strokeColor=#6c8ebf;" vertex="1" parent="1">
          <mxGeometry x="-4258" y="400" width="120" height="60" as="geometry" />
        </mxCell>
        <mxCell id="ZqOxgUCwvgQGVWbEYN_5-56" style="edgeStyle=orthogonalEdgeStyle;rounded=0;orthogonalLoop=1;jettySize=auto;html=1;exitX=0.5;exitY=1;exitDx=0;exitDy=0;entryX=0.5;entryY=0;entryDx=0;entryDy=0;" edge="1" parent="1" source="ZqOxgUCwvgQGVWbEYN_5-47" target="ZqOxgUCwvgQGVWbEYN_5-42">
          <mxGeometry relative="1" as="geometry" />
        </mxCell>
        <mxCell id="ZqOxgUCwvgQGVWbEYN_5-57" style="edgeStyle=orthogonalEdgeStyle;rounded=0;orthogonalLoop=1;jettySize=auto;html=1;exitX=0.5;exitY=1;exitDx=0;exitDy=0;entryX=0.5;entryY=0;entryDx=0;entryDy=0;" edge="1" parent="1" source="ZqOxgUCwvgQGVWbEYN_5-47" target="ZqOxgUCwvgQGVWbEYN_5-43">
          <mxGeometry relative="1" as="geometry" />
        </mxCell>
        <mxCell id="ZqOxgUCwvgQGVWbEYN_5-47" value="" style="ellipse;whiteSpace=wrap;html=1;aspect=fixed;" vertex="1" parent="1">
          <mxGeometry x="-4128" y="425" width="10" height="10" as="geometry" />
        </mxCell>
        <mxCell id="ZqOxgUCwvgQGVWbEYN_5-48" style="edgeStyle=orthogonalEdgeStyle;rounded=0;orthogonalLoop=1;jettySize=auto;html=1;exitX=1;exitY=0.5;exitDx=0;exitDy=0;entryX=0;entryY=0.5;entryDx=0;entryDy=0;endArrow=none;startFill=0;" edge="1" parent="1" source="ZqOxgUCwvgQGVWbEYN_5-49" target="ZqOxgUCwvgQGVWbEYN_5-50">
          <mxGeometry relative="1" as="geometry" />
        </mxCell>
        <mxCell id="ZqOxgUCwvgQGVWbEYN_5-49" value="&lt;div&gt;Nuno&lt;/div&gt;" style="rounded=1;whiteSpace=wrap;html=1;" vertex="1" parent="1">
          <mxGeometry x="-4548" y="510" width="120" height="60" as="geometry" />
        </mxCell>
        <mxCell id="ZqOxgUCwvgQGVWbEYN_5-69" style="edgeStyle=orthogonalEdgeStyle;rounded=0;orthogonalLoop=1;jettySize=auto;html=1;exitX=0.5;exitY=1;exitDx=0;exitDy=0;entryX=0.5;entryY=0;entryDx=0;entryDy=0;" edge="1" parent="1" source="ZqOxgUCwvgQGVWbEYN_5-50" target="ZqOxgUCwvgQGVWbEYN_5-66">
          <mxGeometry relative="1" as="geometry" />
        </mxCell>
        <mxCell id="ZqOxgUCwvgQGVWbEYN_5-70" style="edgeStyle=orthogonalEdgeStyle;rounded=0;orthogonalLoop=1;jettySize=auto;html=1;exitX=0.5;exitY=1;exitDx=0;exitDy=0;entryX=0.5;entryY=0;entryDx=0;entryDy=0;" edge="1" parent="1" source="ZqOxgUCwvgQGVWbEYN_5-50" target="ZqOxgUCwvgQGVWbEYN_5-68">
          <mxGeometry relative="1" as="geometry" />
        </mxCell>
        <mxCell id="ZqOxgUCwvgQGVWbEYN_5-50" value="" style="ellipse;whiteSpace=wrap;html=1;aspect=fixed;" vertex="1" parent="1">
          <mxGeometry x="-4418" y="535" width="10" height="10" as="geometry" />
        </mxCell>
        <mxCell id="ZqOxgUCwvgQGVWbEYN_5-51" style="edgeStyle=orthogonalEdgeStyle;rounded=0;orthogonalLoop=1;jettySize=auto;html=1;exitX=1;exitY=0.5;exitDx=0;exitDy=0;entryX=0;entryY=0.5;entryDx=0;entryDy=0;endArrow=none;startFill=0;" edge="1" parent="1" source="ZqOxgUCwvgQGVWbEYN_5-52" target="ZqOxgUCwvgQGVWbEYN_5-53">
          <mxGeometry relative="1" as="geometry" />
        </mxCell>
        <mxCell id="ZqOxgUCwvgQGVWbEYN_5-52" value="&lt;div&gt;António&lt;br&gt;&quot;Tó&quot;&lt;/div&gt;" style="rounded=1;whiteSpace=wrap;html=1;" vertex="1" parent="1">
          <mxGeometry x="-4198" y="510" width="120" height="60" as="geometry" />
        </mxCell>
        <mxCell id="ZqOxgUCwvgQGVWbEYN_5-67" style="edgeStyle=orthogonalEdgeStyle;rounded=0;orthogonalLoop=1;jettySize=auto;html=1;exitX=0.5;exitY=1;exitDx=0;exitDy=0;entryX=0.5;entryY=0;entryDx=0;entryDy=0;" edge="1" parent="1" source="ZqOxgUCwvgQGVWbEYN_5-53" target="ZqOxgUCwvgQGVWbEYN_5-59">
          <mxGeometry relative="1" as="geometry" />
        </mxCell>
        <mxCell id="ZqOxgUCwvgQGVWbEYN_5-53" value="" style="ellipse;whiteSpace=wrap;html=1;aspect=fixed;" vertex="1" parent="1">
          <mxGeometry x="-4068" y="535" width="10" height="10" as="geometry" />
        </mxCell>
        <mxCell id="ZqOxgUCwvgQGVWbEYN_5-63" style="edgeStyle=orthogonalEdgeStyle;rounded=0;orthogonalLoop=1;jettySize=auto;html=1;exitX=0;exitY=0.5;exitDx=0;exitDy=0;entryX=1;entryY=0.5;entryDx=0;entryDy=0;endArrow=none;startFill=0;" edge="1" parent="1" source="ZqOxgUCwvgQGVWbEYN_5-59" target="ZqOxgUCwvgQGVWbEYN_5-62">
          <mxGeometry relative="1" as="geometry" />
        </mxCell>
        <mxCell id="ZqOxgUCwvgQGVWbEYN_5-59" value="Bruno" style="rounded=1;whiteSpace=wrap;html=1;fillColor=#dae8fc;strokeColor=#6c8ebf;" vertex="1" parent="1">
          <mxGeometry x="-4123" y="610" width="120" height="60" as="geometry" />
        </mxCell>
        <mxCell id="ZqOxgUCwvgQGVWbEYN_5-60" style="edgeStyle=orthogonalEdgeStyle;rounded=0;orthogonalLoop=1;jettySize=auto;html=1;exitX=1;exitY=0.5;exitDx=0;exitDy=0;entryX=0;entryY=0.5;entryDx=0;entryDy=0;endArrow=none;startFill=0;" edge="1" parent="1" source="ZqOxgUCwvgQGVWbEYN_5-61" target="ZqOxgUCwvgQGVWbEYN_5-62">
          <mxGeometry relative="1" as="geometry" />
        </mxCell>
        <mxCell id="ZqOxgUCwvgQGVWbEYN_5-61" value="Susana" style="rounded=1;whiteSpace=wrap;html=1;" vertex="1" parent="1">
          <mxGeometry x="-4268" y="610" width="120" height="60" as="geometry" />
        </mxCell>
        <mxCell id="ZqOxgUCwvgQGVWbEYN_5-65" style="edgeStyle=orthogonalEdgeStyle;rounded=0;orthogonalLoop=1;jettySize=auto;html=1;exitX=0.5;exitY=1;exitDx=0;exitDy=0;entryX=0.5;entryY=0;entryDx=0;entryDy=0;" edge="1" parent="1" source="ZqOxgUCwvgQGVWbEYN_5-62" target="ZqOxgUCwvgQGVWbEYN_5-64">
          <mxGeometry relative="1" as="geometry" />
        </mxCell>
        <mxCell id="ZqOxgUCwvgQGVWbEYN_5-62" value="" style="ellipse;whiteSpace=wrap;html=1;aspect=fixed;" vertex="1" parent="1">
          <mxGeometry x="-4140" y="635" width="10" height="10" as="geometry" />
        </mxCell>
        <mxCell id="ZqOxgUCwvgQGVWbEYN_5-64" value="Carolina" style="rounded=1;whiteSpace=wrap;html=1;fillColor=#dae8fc;strokeColor=#6c8ebf;" vertex="1" parent="1">
          <mxGeometry x="-4195" y="710" width="120" height="60" as="geometry" />
        </mxCell>
        <mxCell id="ZqOxgUCwvgQGVWbEYN_5-66" value="Catarina" style="rounded=1;whiteSpace=wrap;html=1;fillColor=#dae8fc;strokeColor=#6c8ebf;" vertex="1" parent="1">
          <mxGeometry x="-4398" y="610" width="120" height="60" as="geometry" />
        </mxCell>
        <mxCell id="ZqOxgUCwvgQGVWbEYN_5-99" style="edgeStyle=orthogonalEdgeStyle;rounded=0;orthogonalLoop=1;jettySize=auto;html=1;exitX=0;exitY=0.5;exitDx=0;exitDy=0;entryX=1;entryY=0.5;entryDx=0;entryDy=0;endArrow=none;startFill=0;" edge="1" parent="1" source="ZqOxgUCwvgQGVWbEYN_5-68" target="ZqOxgUCwvgQGVWbEYN_5-98">
          <mxGeometry relative="1" as="geometry" />
        </mxCell>
        <mxCell id="ZqOxgUCwvgQGVWbEYN_5-68" value="Nuno" style="rounded=1;whiteSpace=wrap;html=1;fillColor=#dae8fc;strokeColor=#6c8ebf;" vertex="1" parent="1">
          <mxGeometry x="-4548" y="610" width="120" height="60" as="geometry" />
        </mxCell>
        <mxCell id="ZqOxgUCwvgQGVWbEYN_5-72" style="edgeStyle=orthogonalEdgeStyle;rounded=0;orthogonalLoop=1;jettySize=auto;html=1;exitX=0.5;exitY=1;exitDx=0;exitDy=0;entryX=0.5;entryY=0;entryDx=0;entryDy=0;" edge="1" parent="1" source="ZqOxgUCwvgQGVWbEYN_5-71" target="ZqOxgUCwvgQGVWbEYN_5-36">
          <mxGeometry relative="1" as="geometry" />
        </mxCell>
        <mxCell id="ZqOxgUCwvgQGVWbEYN_5-75" style="edgeStyle=orthogonalEdgeStyle;rounded=0;orthogonalLoop=1;jettySize=auto;html=1;exitX=0.5;exitY=1;exitDx=0;exitDy=0;entryX=0.5;entryY=0;entryDx=0;entryDy=0;" edge="1" parent="1" source="ZqOxgUCwvgQGVWbEYN_5-71" target="ZqOxgUCwvgQGVWbEYN_5-73">
          <mxGeometry relative="1" as="geometry" />
        </mxCell>
        <mxCell id="ZqOxgUCwvgQGVWbEYN_5-76" style="edgeStyle=orthogonalEdgeStyle;rounded=0;orthogonalLoop=1;jettySize=auto;html=1;exitX=0.5;exitY=1;exitDx=0;exitDy=0;entryX=0.5;entryY=0;entryDx=0;entryDy=0;" edge="1" parent="1" source="ZqOxgUCwvgQGVWbEYN_5-71" target="ZqOxgUCwvgQGVWbEYN_5-74">
          <mxGeometry relative="1" as="geometry" />
        </mxCell>
        <mxCell id="ZqOxgUCwvgQGVWbEYN_5-80" style="edgeStyle=orthogonalEdgeStyle;rounded=0;orthogonalLoop=1;jettySize=auto;html=1;exitX=0.5;exitY=1;exitDx=0;exitDy=0;entryX=0.5;entryY=0;entryDx=0;entryDy=0;" edge="1" parent="1" source="ZqOxgUCwvgQGVWbEYN_5-71" target="ZqOxgUCwvgQGVWbEYN_5-77">
          <mxGeometry relative="1" as="geometry" />
        </mxCell>
        <mxCell id="ZqOxgUCwvgQGVWbEYN_5-81" style="edgeStyle=orthogonalEdgeStyle;rounded=0;orthogonalLoop=1;jettySize=auto;html=1;exitX=0.5;exitY=1;exitDx=0;exitDy=0;entryX=0.5;entryY=0;entryDx=0;entryDy=0;" edge="1" parent="1" source="ZqOxgUCwvgQGVWbEYN_5-71" target="ZqOxgUCwvgQGVWbEYN_5-78">
          <mxGeometry relative="1" as="geometry" />
        </mxCell>
        <mxCell id="ZqOxgUCwvgQGVWbEYN_5-82" style="edgeStyle=orthogonalEdgeStyle;rounded=0;orthogonalLoop=1;jettySize=auto;html=1;exitX=0.5;exitY=1;exitDx=0;exitDy=0;entryX=0.5;entryY=0;entryDx=0;entryDy=0;" edge="1" parent="1" source="ZqOxgUCwvgQGVWbEYN_5-71" target="ZqOxgUCwvgQGVWbEYN_5-79">
          <mxGeometry relative="1" as="geometry" />
        </mxCell>
        <mxCell id="ZqOxgUCwvgQGVWbEYN_5-71" value="Conceição" style="rounded=1;whiteSpace=wrap;html=1;fillColor=#dae8fc;strokeColor=#6c8ebf;" vertex="1" parent="1">
          <mxGeometry x="-3460" y="150" width="120" height="60" as="geometry" />
        </mxCell>
        <mxCell id="ZqOxgUCwvgQGVWbEYN_5-73" value="Otília" style="rounded=1;whiteSpace=wrap;html=1;fillColor=#dae8fc;strokeColor=#6c8ebf;" vertex="1" parent="1">
          <mxGeometry x="-2890" y="290" width="120" height="60" as="geometry" />
        </mxCell>
        <mxCell id="ZqOxgUCwvgQGVWbEYN_5-74" value="Laudelino" style="rounded=1;whiteSpace=wrap;html=1;fillColor=#dae8fc;strokeColor=#6c8ebf;" vertex="1" parent="1">
          <mxGeometry x="-2760" y="290" width="120" height="60" as="geometry" />
        </mxCell>
        <mxCell id="ZqOxgUCwvgQGVWbEYN_5-77" value="?" style="rounded=1;whiteSpace=wrap;html=1;fillColor=#e1d5e7;strokeColor=#9673a6;" vertex="1" parent="1">
          <mxGeometry x="-2630" y="290" width="120" height="60" as="geometry" />
        </mxCell>
        <mxCell id="ZqOxgUCwvgQGVWbEYN_5-78" value="?" style="rounded=1;whiteSpace=wrap;html=1;fillColor=#e1d5e7;strokeColor=#9673a6;" vertex="1" parent="1">
          <mxGeometry x="-2500" y="290" width="120" height="60" as="geometry" />
        </mxCell>
        <mxCell id="ZqOxgUCwvgQGVWbEYN_5-79" value="?" style="rounded=1;whiteSpace=wrap;html=1;fillColor=#e1d5e7;strokeColor=#9673a6;" vertex="1" parent="1">
          <mxGeometry x="-2370" y="290" width="120" height="60" as="geometry" />
        </mxCell>
        <mxCell id="ZqOxgUCwvgQGVWbEYN_5-84" style="edgeStyle=orthogonalEdgeStyle;rounded=0;orthogonalLoop=1;jettySize=auto;html=1;exitX=0.5;exitY=1;exitDx=0;exitDy=0;entryX=0.5;entryY=0;entryDx=0;entryDy=0;" edge="1" parent="1" source="ZqOxgUCwvgQGVWbEYN_5-83" target="ZqOxgUCwvgQGVWbEYN_5-35">
          <mxGeometry relative="1" as="geometry" />
        </mxCell>
        <mxCell id="ZqOxgUCwvgQGVWbEYN_5-91" style="edgeStyle=orthogonalEdgeStyle;rounded=0;orthogonalLoop=1;jettySize=auto;html=1;exitX=0.5;exitY=1;exitDx=0;exitDy=0;entryX=0.5;entryY=0;entryDx=0;entryDy=0;" edge="1" parent="1" source="ZqOxgUCwvgQGVWbEYN_5-83" target="ZqOxgUCwvgQGVWbEYN_5-85">
          <mxGeometry relative="1" as="geometry">
            <mxPoint x="-4248" y="290" as="targetPoint" />
          </mxGeometry>
        </mxCell>
        <mxCell id="ZqOxgUCwvgQGVWbEYN_5-83" value="Beatriz" style="rounded=1;whiteSpace=wrap;html=1;fillColor=#dae8fc;strokeColor=#6c8ebf;" vertex="1" parent="1">
          <mxGeometry x="-4288" y="150" width="120" height="60" as="geometry" />
        </mxCell>
        <mxCell id="ZqOxgUCwvgQGVWbEYN_5-89" style="edgeStyle=orthogonalEdgeStyle;rounded=0;orthogonalLoop=1;jettySize=auto;html=1;exitX=0;exitY=0.5;exitDx=0;exitDy=0;entryX=1;entryY=0.5;entryDx=0;entryDy=0;endArrow=none;startFill=0;" edge="1" parent="1" source="ZqOxgUCwvgQGVWbEYN_5-85" target="ZqOxgUCwvgQGVWbEYN_5-88">
          <mxGeometry relative="1" as="geometry" />
        </mxCell>
        <mxCell id="ZqOxgUCwvgQGVWbEYN_5-85" value="Lucinda" style="rounded=1;whiteSpace=wrap;html=1;fillColor=#dae8fc;strokeColor=#6c8ebf;" vertex="1" parent="1">
          <mxGeometry x="-4978" y="290" width="120" height="60" as="geometry" />
        </mxCell>
        <mxCell id="ZqOxgUCwvgQGVWbEYN_5-86" style="edgeStyle=orthogonalEdgeStyle;rounded=0;orthogonalLoop=1;jettySize=auto;html=1;exitX=1;exitY=0.5;exitDx=0;exitDy=0;entryX=0;entryY=0.5;entryDx=0;entryDy=0;endArrow=none;startFill=0;" edge="1" parent="1" source="ZqOxgUCwvgQGVWbEYN_5-87" target="ZqOxgUCwvgQGVWbEYN_5-88">
          <mxGeometry relative="1" as="geometry" />
        </mxCell>
        <mxCell id="ZqOxgUCwvgQGVWbEYN_5-87" value="Ferreira" style="rounded=1;whiteSpace=wrap;html=1;" vertex="1" parent="1">
          <mxGeometry x="-5128" y="290" width="120" height="60" as="geometry" />
        </mxCell>
        <mxCell id="ZqOxgUCwvgQGVWbEYN_5-88" value="" style="ellipse;whiteSpace=wrap;html=1;aspect=fixed;" vertex="1" parent="1">
          <mxGeometry x="-4998" y="315" width="10" height="10" as="geometry" />
        </mxCell>
        <mxCell id="ZqOxgUCwvgQGVWbEYN_5-92" value="Dulce" style="rounded=1;whiteSpace=wrap;html=1;" vertex="1" parent="1">
          <mxGeometry x="-4831" y="400" width="120" height="60" as="geometry" />
        </mxCell>
        <mxCell id="ZqOxgUCwvgQGVWbEYN_5-94" style="edgeStyle=orthogonalEdgeStyle;rounded=0;orthogonalLoop=1;jettySize=auto;html=1;exitX=0.5;exitY=1;exitDx=0;exitDy=0;entryX=0.5;entryY=0;entryDx=0;entryDy=0;" edge="1" parent="1" source="ZqOxgUCwvgQGVWbEYN_5-93" target="ZqOxgUCwvgQGVWbEYN_5-46">
          <mxGeometry relative="1" as="geometry" />
        </mxCell>
        <mxCell id="ZqOxgUCwvgQGVWbEYN_5-95" style="edgeStyle=orthogonalEdgeStyle;rounded=0;orthogonalLoop=1;jettySize=auto;html=1;exitX=0.5;exitY=1;exitDx=0;exitDy=0;entryX=0.5;entryY=0;entryDx=0;entryDy=0;" edge="1" parent="1" source="ZqOxgUCwvgQGVWbEYN_5-93" target="ZqOxgUCwvgQGVWbEYN_5-92">
          <mxGeometry relative="1" as="geometry" />
        </mxCell>
        <mxCell id="ZqOxgUCwvgQGVWbEYN_5-93" value="?" style="rounded=1;whiteSpace=wrap;html=1;fillColor=#ffe6cc;strokeColor=#d79b00;" vertex="1" parent="1">
          <mxGeometry x="-4473" y="290" width="120" height="60" as="geometry" />
        </mxCell>
        <mxCell id="ZqOxgUCwvgQGVWbEYN_5-96" style="edgeStyle=orthogonalEdgeStyle;rounded=0;orthogonalLoop=1;jettySize=auto;html=1;exitX=1;exitY=0.5;exitDx=0;exitDy=0;entryX=0;entryY=0.5;entryDx=0;entryDy=0;endArrow=none;startFill=0;" edge="1" parent="1" source="ZqOxgUCwvgQGVWbEYN_5-97" target="ZqOxgUCwvgQGVWbEYN_5-98">
          <mxGeometry relative="1" as="geometry" />
        </mxCell>
        <mxCell id="ZqOxgUCwvgQGVWbEYN_5-97" value="Patricia" style="rounded=1;whiteSpace=wrap;html=1;" vertex="1" parent="1">
          <mxGeometry x="-4693" y="610" width="120" height="60" as="geometry" />
        </mxCell>
        <mxCell id="ZqOxgUCwvgQGVWbEYN_5-98" value="" style="ellipse;whiteSpace=wrap;html=1;aspect=fixed;" vertex="1" parent="1">
          <mxGeometry x="-4565" y="635" width="10" height="10" as="geometry" />
        </mxCell>
        <mxCell id="ZqOxgUCwvgQGVWbEYN_5-100" style="edgeStyle=orthogonalEdgeStyle;rounded=0;orthogonalLoop=1;jettySize=auto;html=1;exitX=0;exitY=0.5;exitDx=0;exitDy=0;entryX=1;entryY=0.5;entryDx=0;entryDy=0;endArrow=none;startFill=0;" edge="1" parent="1" source="ZqOxgUCwvgQGVWbEYN_5-101" target="ZqOxgUCwvgQGVWbEYN_5-106">
          <mxGeometry relative="1" as="geometry" />
        </mxCell>
        <mxCell id="ZqOxgUCwvgQGVWbEYN_5-101" value="Tita" style="rounded=1;whiteSpace=wrap;html=1;fillColor=#dae8fc;strokeColor=#6c8ebf;" vertex="1" parent="1">
          <mxGeometry x="-3687.5" y="510" width="120" height="60" as="geometry" />
        </mxCell>
        <mxCell id="ZqOxgUCwvgQGVWbEYN_5-102" style="edgeStyle=orthogonalEdgeStyle;rounded=0;orthogonalLoop=1;jettySize=auto;html=1;exitX=1;exitY=0.5;exitDx=0;exitDy=0;entryX=0;entryY=0.5;entryDx=0;entryDy=0;endArrow=none;startFill=0;" edge="1" parent="1" source="ZqOxgUCwvgQGVWbEYN_5-103">
          <mxGeometry relative="1" as="geometry">
            <mxPoint x="-3708" y="540" as="targetPoint" />
          </mxGeometry>
        </mxCell>
        <mxCell id="ZqOxgUCwvgQGVWbEYN_5-103" value="Joao Carlos&lt;div&gt;&quot;Tinoni&quot;&lt;/div&gt;" style="rounded=1;whiteSpace=wrap;html=1;" vertex="1" parent="1">
          <mxGeometry x="-3838" y="510" width="120" height="60" as="geometry" />
        </mxCell>
        <mxCell id="ZqOxgUCwvgQGVWbEYN_5-104" style="edgeStyle=orthogonalEdgeStyle;rounded=0;orthogonalLoop=1;jettySize=auto;html=1;exitX=0.5;exitY=1;exitDx=0;exitDy=0;entryX=0.5;entryY=0;entryDx=0;entryDy=0;" edge="1" parent="1" source="ZqOxgUCwvgQGVWbEYN_5-106" target="ZqOxgUCwvgQGVWbEYN_5-107">
          <mxGeometry relative="1" as="geometry" />
        </mxCell>
        <mxCell id="ZqOxgUCwvgQGVWbEYN_5-105" style="edgeStyle=orthogonalEdgeStyle;rounded=0;orthogonalLoop=1;jettySize=auto;html=1;exitX=0.5;exitY=1;exitDx=0;exitDy=0;entryX=0.5;entryY=0;entryDx=0;entryDy=0;" edge="1" parent="1" source="ZqOxgUCwvgQGVWbEYN_5-106" target="ZqOxgUCwvgQGVWbEYN_5-109">
          <mxGeometry relative="1" as="geometry" />
        </mxCell>
        <mxCell id="ZqOxgUCwvgQGVWbEYN_5-106" value="" style="ellipse;whiteSpace=wrap;html=1;aspect=fixed;" vertex="1" parent="1">
          <mxGeometry x="-3709" y="535" width="10" height="10" as="geometry" />
        </mxCell>
        <mxCell id="ZqOxgUCwvgQGVWbEYN_5-107" value="João" style="rounded=1;whiteSpace=wrap;html=1;fillColor=#dae8fc;strokeColor=#6c8ebf;" vertex="1" parent="1">
          <mxGeometry x="-3916" y="610" width="120" height="60" as="geometry" />
        </mxCell>
        <mxCell id="ZqOxgUCwvgQGVWbEYN_5-108" style="edgeStyle=orthogonalEdgeStyle;rounded=0;orthogonalLoop=1;jettySize=auto;html=1;exitX=0;exitY=0.5;exitDx=0;exitDy=0;entryX=1;entryY=0.5;entryDx=0;entryDy=0;endArrow=none;startFill=0;" edge="1" parent="1" source="ZqOxgUCwvgQGVWbEYN_5-109" target="ZqOxgUCwvgQGVWbEYN_5-112">
          <mxGeometry relative="1" as="geometry" />
        </mxCell>
        <mxCell id="ZqOxgUCwvgQGVWbEYN_5-109" value="Miguel" style="rounded=1;whiteSpace=wrap;html=1;fillColor=#dae8fc;strokeColor=#6c8ebf;" vertex="1" parent="1">
          <mxGeometry x="-3609" y="610" width="120" height="60" as="geometry" />
        </mxCell>
        <mxCell id="ZqOxgUCwvgQGVWbEYN_5-110" style="edgeStyle=orthogonalEdgeStyle;rounded=0;orthogonalLoop=1;jettySize=auto;html=1;exitX=1;exitY=0.5;exitDx=0;exitDy=0;entryX=0;entryY=0.5;entryDx=0;entryDy=0;endArrow=none;startFill=0;" edge="1" parent="1" source="ZqOxgUCwvgQGVWbEYN_5-111" target="ZqOxgUCwvgQGVWbEYN_5-112">
          <mxGeometry relative="1" as="geometry" />
        </mxCell>
        <mxCell id="ZqOxgUCwvgQGVWbEYN_5-111" value="Silvia" style="rounded=1;whiteSpace=wrap;html=1;" vertex="1" parent="1">
          <mxGeometry x="-3758" y="610" width="120" height="60" as="geometry" />
        </mxCell>
        <mxCell id="ZqOxgUCwvgQGVWbEYN_5-112" value="" style="ellipse;whiteSpace=wrap;html=1;aspect=fixed;" vertex="1" parent="1">
          <mxGeometry x="-3628" y="635" width="10" height="10" as="geometry" />
        </mxCell>
      </root>
    </mxGraphModel>
  </diagram>
</mxfile>
